<?xml version="1.0" encoding="iso-8859-1"?>
<!-- Uploaded to: SVG Repo, www.svgrepo.com, Generator: SVG Repo Mixer Tools -->
<svg height="800px" width="800px" version="1.1" id="Layer_1" xmlns="http://www.w3.org/2000/svg" xmlns:xlink="http://www.w3.org/1999/xlink" 
	 viewBox="0 0 507.9 507.9" xml:space="preserve">
<path style="fill:#FFFFFF;" d="M398.75,28.2h-289.6c-7.8,0-14.1,6.3-14.1,14.1v423.3c0,7.8,6.3,14.1,14.1,14.1h289.6
	c7.8,0,14.1-6.3,14.1-14.1V42.3C412.85,34.6,406.55,28.2,398.75,28.2z"/>
<path style="fill:#194F82;" d="M398.75,0h-289.6c-23.3,0-42.3,19-42.3,42.3v423.3c0,23.3,19,42.3,42.3,42.3h289.6
	c23.3,0,42.3-19,42.3-42.3V42.3C441.05,19,422.05,0,398.75,0z M412.85,465.7c0,7.8-6.3,14.1-14.1,14.1h-289.6
	c-7.8,0-14.1-6.3-14.1-14.1V42.3c0-7.8,6.3-14.1,14.1-14.1h289.6c7.8,0,14.1,6.3,14.1,14.1V465.7z"/>
<path style="fill:#56ACE0;" d="M342.35,84.7h-176.8c-7.8,0-14.1,6.3-14.1,14.1v253c0,7.8,6.3,14.1,14.1,14.1h176.7
	c7.8,0,14.1-6.3,14.1-14.1v-253C356.45,91,350.05,84.7,342.35,84.7z"/>
<path style="fill:#194F82;" d="M342.35,56.4h-176.8c-23.3,0-42.3,19-42.3,42.3v253c0,23.3,19,42.3,42.3,42.3h176.7
	c23.3,0,42.3-19,42.3-42.3v-253C384.65,75.4,365.65,56.4,342.35,56.4z M356.45,351.8c0,7.8-6.3,14.1-14.1,14.1h-176.8
	c-7.8,0-14.1-6.3-14.1-14.1v-253c0-7.8,6.3-14.1,14.1-14.1h176.7c7.8,0,14.1,6.3,14.1,14.1v253H356.45z"/>
<circle style="fill:#FFC10D;" cx="253.95" cy="437" r="26.3"/>
<g>
	<path style="fill:#194F82;" d="M197.55,234.5c-7.8,0-14.1,6.3-14.1,14.1v80.2c0,7.8,6.3,14.1,14.1,14.1s14.1-6.3,14.1-14.1v-80.2
		C211.65,240.9,205.25,234.5,197.55,234.5z"/>
	<path style="fill:#194F82;" d="M253.95,178.1c-7.8,0-14.1,6.3-14.1,14.1v136.7c0,7.8,6.3,14.1,14.1,14.1c7.8,0,14.1-6.3,14.1-14.1
		V192.2C268.05,184.4,261.75,178.1,253.95,178.1z"/>
	<path style="fill:#194F82;" d="M310.35,107.5c-7.8,0-14.1,6.3-14.1,14.1v207.2c0,7.8,6.3,14.1,14.1,14.1c7.8,0,14.1-6.3,14.1-14.1
		V121.6C324.55,113.9,318.15,107.5,310.35,107.5z"/>
</g>
</svg>